<?xml version="1.0" encoding="utf-8"?>
<!-- Generator: Adobe Illustrator 17.1.0, SVG Export Plug-In . SVG Version: 6.00 Build 0)  -->
<!DOCTYPE svg PUBLIC "-//W3C//DTD SVG 1.1//EN" "http://www.w3.org/Graphics/SVG/1.1/DTD/svg11.dtd">
<svg version="1.1" xmlns="http://www.w3.org/2000/svg" xmlns:xlink="http://www.w3.org/1999/xlink" viewBox="0 0 100 100" xml:space="preserve">
    <defs>
        <style>
            .square {
                display:none;
            }
            @media screen and (min-width:3px) and (max-width: 3px) {
                .help {
                    display:block;
                }
            }
            @media screen and (min-width:2px) and (max-width: 2px) {
                .green-square {
                    display:block;
                }
            }
            @media screen and (max-width: 1px) {
                .red-square {
                    display:block;
                }
            }
        </style>
    </defs>
    <rect class="red-square square" fill="#BC2632" width="100" height="100"/>
    <rect class="green-square square" fill="#6EBE44" width="100" height="100"/>
    <path class="help square" fill="000000" width="100" height="100" d="M16,1.466C7.973,1.466,1.466,7.973,1.466,16c0,8.027,6.507,14.534,14.534,14.534c8.027,0,14.534-6.507,14.534-14.534C30.534,7.973,24.027,1.466,16,1.466z M17.328,24.371h-2.707v-2.596h2.707V24.371zM17.328,19.003v0.858h-2.707v-1.057c0-3.19,3.63-3.696,3.63-5.963c0-1.034-0.924-1.826-2.134-1.826c-1.254,0-2.354,0.924-2.354,0.924l-1.541-1.915c0,0,1.519-1.584,4.137-1.584c2.487,0,4.796,1.54,4.796,4.136C21.156,16.208,17.328,16.627,17.328,19.003z"></path>
</svg>
